<?xml version="1.0" encoding="UTF-8"?>
<svg height="128px" viewBox="0 0 128 128" width="128px" xmlns="http://www.w3.org/2000/svg">
    <path d="m 20.496094 16.496094 h 88 c 4.417968 0 8 3.582031 8 8 v 84 c 0 4.417968 -3.582032 8 -8 8 h -88 c -4.417969 0 -8 -3.582032 -8 -8 v -84 c 0 -4.417969 3.582031 -8 8 -8 z m 0 0" fill="#9a9996"/>
    <path d="m 20.496094 12.496094 h 88 c 4.417968 0 8 3.582031 8 8 v 84 c 0 4.417968 -3.582032 8 -8 8 h -88 c -4.417969 0 -8 -3.582032 -8 -8 v -84 c 0 -4.417969 3.582031 -8 8 -8 z m 0 0" fill="#ffffff"/>
    <path d="m 75.730469 21.632812 l -18.59375 18.59375 l -4.867188 -4.867187 l 18.59375 -18.59375 z m 0 0" fill="#e01b24"/>
    <path d="m 52.269531 21.632812 l 18.59375 18.59375 l 4.867188 -4.867187 l -18.59375 -18.59375 z m 0 0" fill="#e01b24"/>
    <path d="m 73.46875 64 c 0 5.230469 -4.238281 9.46875 -9.46875 9.46875 s -9.46875 -4.238281 -9.46875 -9.46875 s 4.238281 -9.46875 9.46875 -9.46875 s 9.46875 4.238281 9.46875 9.46875 z m 0 0" fill="#1c71d8"/>
    <g fill="#241f31">
        <path d="m 80.558594 12.996094 h 5.773437 v 100 h -5.773437 z m 0 0"/>
        <path d="m 41.667969 12.996094 h 5.773437 v 100 h -5.773437 z m 0 0"/>
        <path d="m 13.882812 49.558594 v -5.773438 h 101.066407 v 5.773438 z m 0 0"/>
        <path d="m 14.4375 84.988281 v -5.773437 h 101.066406 v 5.773437 z m 0 0"/>
    </g>
    <path d="m 36.992188 28.496094 c 0 5.230468 -4.238282 9.46875 -9.46875 9.46875 c -5.230469 0 -9.46875 -4.238282 -9.46875 -9.46875 c 0 -5.230469 4.238281 -9.46875 9.46875 -9.46875 c 5.230468 0 9.46875 4.238281 9.46875 9.46875 z m 0 0" fill="#1c71d8"/>
    <path d="m 75.316406 91.605469 l -18.59375 18.59375 l -4.867187 -4.867188 l 18.59375 -18.59375 z m 0 0" fill="#e01b24"/>
    <path d="m 51.855469 91.605469 l 18.59375 18.59375 l 4.867187 -4.867188 l -18.59375 -18.59375 z m 0 0" fill="#e01b24"/>
</svg>
