<?xml version="1.0" encoding="UTF-8"?>
<svg height="128px" viewBox="0 0 128 128" width="128px" xmlns="http://www.w3.org/2000/svg">
    <path d="m 20.851562 12.496094 h 86.289063 c 4.332031 0 7.84375 3.582031 7.84375 8 v 84 c 0 4.417968 -3.511719 8 -7.84375 8 h -86.289063 c -4.332031 0 -7.84375 -3.582032 -7.84375 -8 v -84 c 0 -4.417969 3.511719 -8 7.84375 -8 z m 0 0" fill="#f6f5f4"/>
    <path d="m 72.511719 23.515625 l -13.492188 13.488281 l -3.53125 -3.527344 l 13.492188 -13.492187 z m 0 0" fill="#e01b24"/>
    <path d="m 55.488281 23.515625 l 13.492188 13.488281 l 3.53125 -3.527344 l -13.492188 -13.492187 z m 0 0" fill="#e01b24"/>
    <path d="m 73.46875 64 c 0 5.230469 -4.238281 9.46875 -9.46875 9.46875 s -9.46875 -4.238281 -9.46875 -9.46875 s 4.238281 -9.46875 9.46875 -9.46875 s 9.46875 4.238281 9.46875 9.46875 z m 0 0" fill="#1c71d8"/>
    <g fill="#77767b">
        <path d="m 76.558594 16.914062 h 5.773437 v 92.160157 h -5.773437 z m 0 0"/>
        <path d="m 45.667969 16.914062 h 5.773437 v 92.160157 h -5.773437 z m 0 0"/>
        <path d="m 21 49.558594 v -5.773438 h 86.832031 v 5.773438 z m 0 0"/>
        <path d="m 20.496094 83.171875 v -5.777344 h 86.828125 v 5.777344 z m 0 0"/>
    </g>
    <path d="m 42.765625 28.496094 c 0 5.230468 -4.242187 9.46875 -9.46875 9.46875 c -5.230469 0 -9.472656 -4.238282 -9.472656 -9.46875 c 0 -5.230469 4.242187 -9.46875 9.472656 -9.46875 c 5.226563 0 9.46875 4.238281 9.46875 9.46875 z m 0 0" fill="#1c71d8" fill-rule="evenodd"/>
    <path d="m 72.855469 91.511719 l -13.492188 13.492187 l -3.53125 -3.53125 l 13.492188 -13.488281 z m 0 0" fill="#e01b24"/>
    <path d="m 55.832031 91.511719 l 13.492188 13.492187 l 3.53125 -3.53125 l -13.492188 -13.488281 z m 0 0" fill="#e01b24"/>
</svg>
